<?xml version="1.0" encoding="utf-8"?>
<svg width="600" height="312.763" viewBox="0 0 600 312.763" xmlns="http://www.w3.org/2000/svg">
  <path d="M205.909 211.855l-21.379-10.542c2.315 8.314 4.194 16.755 5.67 24.884l72.086 37.71-21.263-44.573c-16.07.299-29.437-4.675-35.114-7.479z" fill="#8cc640"/>
  <path d="M241.088 100.234c-1.868 7.946-5.16 15.382-10.331 21.826 16.782-2.758 37.835-8.672 59.211-21.067l-48.88-.759z" fill="#a8d16d"/>
  <path d="M162.689 197.01a29.287 29.287 0 0 0-.04-2.165c-6.69.463-12.966 3.248-17.406 7.892l-34.947 34.79c-7.691 7.652-11.172 5.495-7.74-4.796l7.687-23.047c-10.603 9.62-21.536 17.754-32.626 24.219l-12.885 37.486-14.225 41.374 6.23-6.131 99.651-98.123 4.245 2.22c.888-3.529 1.364-7.18 1.794-10.807.115-.967.23-1.938.26-2.912h.002z" fill="#1a70b2"/>
  <path d="M190.2 226.197c-1.476-8.13-3.354-16.57-5.67-24.884l-7.618-3.759c-4.647-2.246-9.554-3.035-14.262-2.708.031.72.061 1.443.039 2.165-.031.975-.146 1.944-.26 2.914-.43 3.624-.906 7.277-1.795 10.807l25.061 13.11 4.503 2.355h.001z" fill="#5f88c1"/>
  <path d="M94.062 186.068l-16.442 47.83c11.087-6.462 22.021-14.595 32.623-24.214l10.835-32.483c.173-.516.239-1.068.37-1.599-4.965 3.53-10.914 5.852-16.727 7.895-3.453 1.213-7.039 2.372-10.659 2.571z" fill="#ee6da1"/>
  <path d="M111.138 147.216L79.92 125.483c-8.899-6.198-7.459-9.678 3.223-7.729l39.045 7.128c.717.13 1.424.128 2.137.184-4.547-6.473-8.473-14.151-11.85-22.467L62.28 92.435 0 79.828l104.265 76.561-2.992 8.703-7.21 20.977c3.618-.199 7.202-1.358 10.658-2.572 5.812-2.043 11.761-4.366 16.728-7.893 2.513-10.057-1.863-22.496-10.311-28.386v-.002z" fill="#ea2487"/>
  <path d="M142.276 103.658c-.968-6.82-1.938-13.651-2.307-20.536-.143-2.675-.195-5.353-.247-8.03l-.207-10.568-10.813 41.36-16.215-3.285c3.372 8.317 7.297 15.994 11.844 22.467 8.179.652 15.977-3.458 19.99-10.746-.235-.843-.48-1.684-.671-2.54-.6-2.675-.986-5.4-1.373-8.121l-.001-.001z" fill="#fec96a"/>
  <path d="M185.714 99.375L156.389 0l-16.874 64.524.208 10.568c.052 2.677.104 5.356.248 8.03.367 6.885 1.337 13.716 2.305 20.536.387 2.72.774 5.446 1.372 8.121.192.857.437 1.697.671 2.541.855-1.555 1.6-3.202 2.072-5.034l6.155-24.583c2.631-10.527 7.474-10.678 10.766-.344l6.633 20.878c3.284 10.343 14.002 18.57 25.695 18.798 0 0 14.255 1.453 35.114-1.974 5.174-6.445 8.463-13.881 10.334-21.827l-55.374-.86v.001z" fill="#fdba32"/>
  <path d="M 191.34 156.917 C 190.781 158.978 190.356 161.073 190.069 163.189 C 189.753 165.583 189.499 167.985 189.307 170.392 L 189.221 170.392 C 188.996 167.568 188.726 165.125 188.416 163.062 C 188.102 160.989 187.664 158.937 187.103 156.917 L 180.663 131.664 L 163.798 131.664 L 163.798 190.562 L 174.815 190.562 L 174.815 165.14 C 174.815 161.58 174.715 157.711 174.518 153.53 C 174.319 149.349 174.108 145.733 173.883 142.681 L 173.968 142.681 C 174.192 144.321 174.433 145.916 174.688 147.47 C 174.942 149.024 175.238 150.747 175.578 152.64 C 175.917 154.533 176.298 156.467 176.722 158.444 C 177.145 160.424 177.582 162.202 178.035 163.783 L 182.865 180.817 L 194.391 180.817 L 199.391 162.935 C 200.295 159.602 201.114 156.016 201.849 152.173 C 202.582 148.332 203.119 145.168 203.459 142.681 L 203.629 142.681 C 203.402 145.451 203.204 148.771 203.035 152.639 C 202.866 156.509 202.781 160.593 202.781 164.885 L 202.781 190.563 L 214.985 190.563 L 214.985 131.665 L 197.188 131.665 L 191.34 156.918 L 191.34 156.917 Z M 242.95 146.155 C 236.791 146.155 232.116 147.935 228.924 151.495 C 225.731 155.054 224.136 160.789 224.136 168.698 C 224.136 176.607 225.731 182.413 228.924 186.113 C 232.116 189.813 236.791 191.664 242.95 191.664 C 249.107 191.664 253.782 189.871 256.975 186.282 C 260.166 182.695 261.763 176.947 261.763 169.037 C 261.763 161.07 260.166 155.266 256.975 151.621 C 253.782 147.977 249.107 146.155 242.95 146.155 Z M 247.738 179.927 C 246.918 181.875 245.35 182.85 243.034 182.85 C 240.661 182.85 239.064 181.918 238.247 180.054 C 237.427 178.19 237.017 174.517 237.017 169.037 C 237.017 166.099 237.102 163.727 237.272 161.917 C 237.441 160.11 237.751 158.712 238.204 157.723 C 238.656 156.735 239.249 156.043 239.984 155.647 C 240.717 155.252 241.706 155.054 242.95 155.054 C 244.192 155.054 245.181 155.238 245.915 155.604 C 246.649 155.972 247.243 156.636 247.695 157.596 C 248.147 158.558 248.472 159.913 248.67 161.663 C 248.867 163.415 248.967 165.761 248.967 168.698 C 248.967 174.235 248.557 177.977 247.737 179.927 L 247.738 179.927 Z M 293.034 146.155 C 290.492 146.155 288.274 146.608 286.382 147.511 C 284.488 148.416 282.639 149.714 280.831 151.409 L 279.814 147.257 L 270.068 147.257 L 270.068 190.562 L 282.018 190.562 L 282.018 158.274 C 283.148 157.37 284.164 156.72 285.068 156.325 C 285.971 155.93 287.045 155.731 288.288 155.731 C 289.645 155.731 290.647 156.085 291.298 156.791 C 291.946 157.498 292.272 158.839 292.272 160.817 L 292.272 190.562 L 304.305 190.562 L 304.305 158.105 C 304.305 153.812 303.386 150.745 301.551 148.909 C 299.715 147.074 296.876 146.155 293.034 146.155 Z M 333.881 181.833 C 332.695 182.343 331.621 182.595 330.661 182.595 C 329.531 182.595 328.712 182.272 328.204 181.622 C 327.695 180.972 327.441 179.772 327.441 178.02 L 327.441 156.325 L 335.407 156.325 L 335.407 147.257 L 327.441 147.257 L 327.441 134.63 L 315.491 136.663 L 315.491 147.257 L 311.085 147.257 L 311.085 156.325 L 315.492 156.325 L 315.492 180.816 C 315.492 184.772 316.537 187.568 318.627 189.206 C 320.717 190.845 323.74 191.664 327.695 191.664 C 329.502 191.664 331.014 191.508 332.229 191.197 C 333.443 190.887 334.699 190.422 336 189.8 L 334.39 181.664 C 334.227 181.738 334.056 181.795 333.881 181.834 L 333.881 181.833 Z M 396.253 167.3 C 395.067 165.576 393.569 164.432 391.763 163.867 C 395.321 162.907 397.949 161.269 399.643 158.952 C 401.338 156.636 402.186 153.162 402.186 148.528 C 402.186 142.879 400.576 138.655 397.356 135.858 C 394.135 133.062 388.852 131.664 381.508 131.664 L 363.033 131.664 L 363.033 190.562 L 375.745 190.562 L 375.745 166.58 L 378.372 166.58 C 380.632 166.58 382.256 167.046 383.245 167.979 C 384.233 168.91 385.123 170.846 385.915 173.783 L 390.491 190.563 L 404.051 190.563 L 399.389 174.546 C 398.485 171.439 397.44 169.025 396.253 167.301 L 396.253 167.3 Z M 387.313 155.308 C 386.323 156.551 384.558 157.172 382.016 157.172 L 375.745 157.172 L 375.745 142.342 L 381.931 142.342 C 384.417 142.342 386.181 142.865 387.228 143.909 C 388.273 144.955 388.796 146.72 388.796 149.206 C 388.796 152.032 388.301 154.066 387.313 155.308 Z M 427.949 146.155 C 421.791 146.155 417.115 147.935 413.924 151.495 C 410.731 155.054 409.136 160.789 409.136 168.698 C 409.136 176.607 410.731 182.413 413.924 186.113 C 417.115 189.813 421.791 191.664 427.949 191.664 C 434.107 191.664 438.782 189.871 441.975 186.282 C 445.165 182.695 446.762 176.947 446.762 169.037 C 446.762 161.07 445.166 155.266 441.975 151.621 C 438.782 147.977 434.107 146.155 427.949 146.155 Z M 432.737 179.927 C 431.917 181.875 430.35 182.85 428.034 182.85 C 425.661 182.85 424.064 181.918 423.246 180.054 C 422.426 178.19 422.016 174.517 422.016 169.037 C 422.016 166.099 422.102 163.727 422.271 161.917 C 422.441 160.11 422.751 158.712 423.203 157.723 C 423.655 156.735 424.248 156.043 424.983 155.647 C 425.717 155.252 426.706 155.054 427.949 155.054 C 429.191 155.054 430.181 155.238 430.915 155.604 C 431.649 155.972 432.242 156.636 432.695 157.596 C 433.146 158.558 433.471 159.913 433.67 161.663 C 433.867 163.415 433.966 165.761 433.966 168.698 C 433.966 174.235 433.556 177.977 432.737 179.927 Z M 471.339 182.427 C 471.001 182.47 470.662 182.498 470.322 182.511 C 468.909 182.511 468.005 182.299 467.61 181.875 C 467.214 181.451 467.017 180.422 467.017 178.783 L 467.017 128.528 L 455.067 128.528 L 455.067 177.85 C 455.067 182.88 455.745 186.41 457.102 188.443 C 458.457 190.477 461.282 191.495 465.576 191.495 C 466.932 191.495 468.203 191.368 469.389 191.113 C 470.577 190.859 471.621 190.563 472.525 190.223 L 471.339 182.426 L 471.339 182.427 Z M 494.814 146.155 C 491.536 146.155 488.542 146.608 485.83 147.511 C 483.118 148.416 480.52 149.714 478.034 151.409 L 482.356 159.545 C 484.276 158.415 486.169 157.512 488.033 156.833 C 489.897 156.154 491.763 155.816 493.627 155.816 C 495.547 155.816 496.832 156.269 497.483 157.172 C 498.132 158.077 498.458 159.687 498.458 162.002 L 498.458 163.612 L 495.831 163.612 C 489.333 163.612 484.571 164.729 481.551 166.96 C 478.528 169.193 477.017 172.795 477.017 177.766 C 477.017 182.229 478.047 185.661 480.11 188.063 C 482.172 190.464 485.407 191.664 489.814 191.664 C 491.959 191.664 493.852 191.254 495.491 190.434 C 497.12 189.622 498.586 188.516 499.813 187.172 C 499.869 187.229 500.067 187.85 500.407 189.036 C 500.746 190.053 500.943 190.562 501 190.562 L 510.406 190.562 L 510.406 160.138 C 510.406 155.11 509.178 151.523 506.721 149.376 C 504.262 147.229 500.293 146.156 494.814 146.156 L 494.814 146.155 Z M 498.458 181.155 C 497.666 181.89 496.848 182.455 496 182.85 C 495.153 183.246 494.192 183.443 493.119 183.443 C 491.536 183.443 490.435 183.006 489.814 182.13 C 489.191 181.254 488.881 179.743 488.881 177.596 C 488.881 175.111 489.46 173.388 490.618 172.427 C 491.776 171.467 494.192 170.985 497.865 170.985 L 498.458 170.985 L 498.458 181.155 Z M 542.524 190.562 L 554.558 190.562 L 554.558 158.105 C 554.558 153.812 553.639 150.745 551.804 148.909 C 549.968 147.074 547.128 146.155 543.287 146.155 C 540.745 146.155 538.527 146.608 536.634 147.511 C 534.74 148.416 532.891 149.714 531.084 151.409 L 530.066 147.257 L 520.32 147.257 L 520.32 190.562 L 532.27 190.562 L 532.27 158.274 C 533.4 157.37 534.416 156.72 535.32 156.325 C 536.224 155.93 537.297 155.731 538.542 155.731 C 539.897 155.731 540.9 156.085 541.549 156.791 C 542.198 157.497 542.524 158.839 542.524 160.817 L 542.524 190.562 Z M 589.219 190.562 L 598.965 190.562 L 598.965 128.528 L 587.017 128.528 L 587.017 150.223 C 585.829 149.093 584.389 148.133 582.695 147.341 C 581 146.551 579.135 146.155 577.101 146.155 C 572.016 146.155 568.343 147.837 566.084 151.198 C 563.824 154.56 562.694 160.62 562.694 169.375 C 562.694 173.557 563.032 177.087 563.711 179.969 C 564.389 182.849 565.377 185.139 566.677 186.833 C 567.977 188.528 569.529 189.757 571.337 190.52 C 573.147 191.282 575.237 191.664 577.609 191.664 C 579.756 191.664 581.635 191.24 583.244 190.393 C 584.856 189.545 586.508 188.246 588.203 186.495 L 589.219 190.562 Z M 587.017 179.714 C 586.206 180.426 585.291 181.012 584.305 181.451 C 583.342 181.875 582.214 182.088 580.915 182.088 C 578.766 182.088 577.341 181.269 576.635 179.63 C 575.928 177.992 575.575 174.517 575.575 169.206 C 575.575 166.325 575.66 164.024 575.83 162.299 C 576 160.576 576.296 159.235 576.72 158.274 C 577.143 157.314 577.721 156.65 578.457 156.282 C 579.19 155.916 580.18 155.732 581.423 155.732 C 582.553 155.732 583.584 155.958 584.516 156.41 C 585.428 156.849 586.271 157.42 587.016 158.105 L 587.016 179.715 L 587.017 179.714 Z M 313.67 100.785 L 307.394 100.785 L 307.394 104.07 L 309.717 104.07 L 309.717 107.461 C 309.438 107.672 309.127 107.839 308.797 107.956 C 308.431 108.078 308.047 108.136 307.661 108.13 C 307.074 108.13 306.588 108.032 306.206 107.836 C 305.823 107.64 305.511 107.301 305.271 106.821 C 305.031 106.341 304.852 105.686 304.736 104.858 C 304.62 104.03 304.563 102.967 304.563 101.667 C 304.563 100.421 304.621 99.415 304.736 98.649 C 304.852 97.884 305.03 97.278 305.271 96.833 C 305.511 96.388 305.836 96.076 306.245 95.898 C 306.655 95.72 307.18 95.631 307.821 95.631 C 308.444 95.631 308.987 95.742 309.451 95.965 C 309.913 96.188 310.447 96.548 311.052 97.046 L 313.189 94.189 C 312.387 93.513 311.551 93.019 310.679 92.707 C 309.806 92.395 308.783 92.239 307.607 92.239 C 305.133 92.239 303.277 92.992 302.039 94.496 C 300.801 96.001 300.184 98.471 300.184 101.907 C 300.184 105.201 300.761 107.622 301.919 109.171 C 303.077 110.72 304.768 111.494 306.993 111.494 C 307.634 111.494 308.243 111.37 308.823 111.12 C 309.401 110.871 309.923 110.508 310.358 110.052 L 310.785 111.147 L 313.67 111.147 L 313.67 100.785 Z M 320.586 101.426 C 320.863 101.218 321.169 101.052 321.494 100.932 C 321.779 100.834 322.135 100.785 322.562 100.785 C 323.06 100.785 323.515 100.91 323.925 101.159 L 324.592 97.394 C 324.242 97.31 323.884 97.265 323.524 97.26 C 322.189 97.26 321.094 97.857 320.239 99.05 L 319.892 97.5 L 316.821 97.5 L 316.821 111.147 L 320.586 111.147 L 320.586 101.426 Z M 331.856 97.153 C 329.915 97.153 328.441 97.714 327.436 98.836 C 326.43 99.957 325.927 101.765 325.927 104.257 C 325.927 106.75 326.43 108.579 327.436 109.745 C 328.441 110.911 329.915 111.495 331.856 111.495 C 333.796 111.495 335.27 110.929 336.276 109.799 C 337.281 108.668 337.784 106.856 337.784 104.364 C 337.784 101.854 337.281 100.024 336.276 98.876 C 335.27 97.728 333.796 97.153 331.856 97.153 Z M 333.364 107.796 C 333.106 108.41 332.612 108.716 331.882 108.716 C 331.135 108.716 330.632 108.423 330.374 107.836 C 330.115 107.248 329.986 106.091 329.986 104.364 C 329.986 103.438 330.013 102.69 330.066 102.12 C 330.12 101.55 330.217 101.11 330.36 100.799 C 330.502 100.487 330.69 100.269 330.92 100.144 C 331.152 100.02 331.464 99.957 331.856 99.957 C 332.247 99.957 332.559 100.015 332.79 100.131 C 333.021 100.247 333.208 100.456 333.351 100.758 C 333.494 101.061 333.596 101.489 333.658 102.041 C 333.721 102.592 333.752 103.331 333.752 104.257 C 333.752 106.002 333.622 107.181 333.364 107.796 Z M 347.344 107.622 C 347.051 107.86 346.734 108.066 346.397 108.236 C 346.084 108.383 345.741 108.456 345.395 108.45 C 344.95 108.45 344.621 108.334 344.407 108.103 C 344.194 107.871 344.087 107.444 344.087 106.821 L 344.087 97.5 L 340.321 97.5 L 340.321 107.54 C 340.321 108.84 340.664 109.824 341.35 110.492 C 342.035 111.159 342.956 111.493 344.114 111.493 C 344.932 111.493 345.591 111.36 346.09 111.093 C 346.588 110.825 347.131 110.389 347.72 109.784 L 348.04 111.146 L 351.11 111.146 L 351.11 97.501 L 347.345 97.501 L 347.345 107.621 L 347.344 107.622 Z M 364.703 109.839 C 365.415 108.735 365.771 106.794 365.771 104.016 C 365.771 102.699 365.673 101.6 365.477 100.718 C 365.281 99.836 364.993 99.134 364.61 98.609 C 364.227 98.084 363.76 97.709 363.208 97.487 C 362.655 97.264 361.997 97.153 361.231 97.153 C 359.95 97.153 358.783 97.705 357.733 98.809 L 357.413 97.501 L 354.341 97.501 L 354.341 116.301 L 358.107 116.301 L 358.107 110.239 C 358.498 110.595 358.957 110.893 359.482 111.134 C 360.007 111.374 360.599 111.494 361.258 111.494 C 362.842 111.494 363.991 110.943 364.703 109.839 Z M 361.659 106.394 C 361.605 106.928 361.507 107.346 361.365 107.649 C 361.133 108.201 360.644 108.476 359.896 108.476 C 359.522 108.476 359.189 108.41 358.895 108.276 C 358.606 108.146 358.34 107.971 358.107 107.756 L 358.107 100.946 C 358.37 100.711 358.667 100.517 358.988 100.372 C 359.291 100.238 359.638 100.172 360.03 100.172 C 360.724 100.172 361.187 100.43 361.418 100.946 C 361.542 101.231 361.628 101.636 361.672 102.16 C 361.716 102.686 361.739 103.376 361.739 104.23 C 361.739 105.138 361.712 105.86 361.659 106.394 Z M 374.424 111.494 C 375.368 111.494 376.231 111.343 377.014 111.04 C 377.798 110.738 378.448 110.346 378.964 109.865 L 377.335 107.355 C 376.895 107.693 376.42 107.984 375.919 108.223 C 375.475 108.427 374.949 108.53 374.344 108.53 C 373.489 108.53 372.884 108.33 372.528 107.93 C 372.172 107.528 371.958 106.723 371.888 105.512 L 379.231 105.512 L 379.231 104.417 C 379.231 101.871 378.791 100.024 377.909 98.876 C 377.028 97.728 375.563 97.153 373.516 97.153 C 371.646 97.153 370.226 97.714 369.256 98.836 C 368.286 99.957 367.801 101.765 367.801 104.257 C 367.801 106.803 368.331 108.646 369.391 109.785 C 370.449 110.925 372.128 111.495 374.424 111.495 L 374.424 111.494 Z M 372.354 100.504 C 372.612 100.087 373.044 99.877 373.65 99.877 C 374.344 99.877 374.802 100.1 375.025 100.545 C 375.247 100.99 375.377 101.791 375.412 102.949 L 371.887 102.949 C 371.941 101.738 372.097 100.923 372.355 100.505 L 372.354 100.504 Z M 385.106 108.396 C 384.536 108.396 383.98 108.303 383.436 108.116 C 382.898 107.931 382.383 107.685 381.901 107.381 L 380.699 110.239 C 381.305 110.595 382.039 110.893 382.903 111.134 C 383.767 111.374 384.706 111.494 385.721 111.494 C 387.411 111.494 388.667 111.107 389.486 110.333 C 390.305 109.559 390.714 108.441 390.714 106.981 C 390.714 106.287 390.621 105.695 390.434 105.205 C 390.27 104.751 390.005 104.34 389.659 104.003 C 389.323 103.688 388.94 103.426 388.524 103.229 C 388.026 102.999 387.507 102.816 386.975 102.681 C 386.157 102.451 385.631 102.254 385.4 102.094 C 385.168 101.934 385.053 101.649 385.053 101.239 C 385.053 100.883 385.173 100.616 385.413 100.438 C 385.653 100.26 385.987 100.171 386.415 100.171 C 387.43 100.171 388.382 100.394 389.272 100.839 L 390.207 98.008 C 389.593 97.732 388.953 97.518 388.297 97.367 C 387.665 97.224 386.904 97.153 386.014 97.153 C 384.536 97.153 383.392 97.505 382.582 98.208 C 381.772 98.912 381.368 99.94 381.368 101.292 C 381.368 102.503 381.638 103.429 382.182 104.07 C 382.725 104.71 383.539 105.192 384.626 105.512 C 385.569 105.797 386.192 106.037 386.496 106.233 C 386.797 106.429 386.949 106.75 386.949 107.195 C 386.949 107.996 386.335 108.396 385.106 108.396 Z M 407.126 104.003 C 406.79 103.687 406.407 103.426 405.99 103.229 C 405.492 102.999 404.973 102.816 404.441 102.681 C 403.622 102.451 403.097 102.254 402.866 102.094 C 402.634 101.934 402.518 101.649 402.518 101.239 C 402.518 100.883 402.638 100.616 402.879 100.438 C 403.119 100.26 403.453 100.171 403.881 100.171 C 404.895 100.171 405.847 100.394 406.738 100.839 L 407.672 98.008 C 407.058 97.732 406.419 97.518 405.763 97.367 C 405.131 97.224 404.37 97.153 403.48 97.153 C 402.002 97.153 400.858 97.505 400.048 98.208 C 399.238 98.912 398.833 99.94 398.833 101.292 C 398.833 102.503 399.104 103.429 399.648 104.07 C 400.191 104.71 401.005 105.192 402.091 105.512 C 403.035 105.797 403.658 106.037 403.961 106.233 C 404.263 106.429 404.414 106.75 404.414 107.195 C 404.414 107.996 403.8 108.396 402.572 108.396 C 402.002 108.396 401.445 108.303 400.902 108.116 C 400.364 107.931 399.849 107.685 399.367 107.381 L 398.165 110.239 C 398.77 110.595 399.505 110.893 400.369 111.134 C 401.232 111.374 402.171 111.494 403.186 111.494 C 404.877 111.494 406.132 111.107 406.951 110.333 C 407.77 109.559 408.181 108.441 408.181 106.981 C 408.181 106.287 408.087 105.695 407.9 105.205 C 407.736 104.751 407.471 104.34 407.125 104.003 L 407.126 104.003 Z M 415.818 111.494 C 416.69 111.494 417.465 111.361 418.141 111.094 C 418.808 110.833 419.416 110.443 419.931 109.945 L 418.355 107.435 C 417.945 107.791 417.585 108.049 417.273 108.209 C 416.962 108.369 416.566 108.449 416.085 108.449 C 415.301 108.449 414.767 108.165 414.483 107.595 C 414.198 107.025 414.055 105.895 414.055 104.204 C 414.055 102.548 414.193 101.462 414.47 100.946 C 414.745 100.43 415.248 100.171 415.978 100.171 C 416.405 100.171 416.779 100.256 417.1 100.424 C 417.42 100.594 417.74 100.848 418.06 101.186 L 419.904 98.729 C 419.352 98.217 418.709 97.814 418.008 97.541 C 417.331 97.283 416.548 97.153 415.658 97.153 C 413.752 97.153 412.328 97.719 411.385 98.849 C 410.441 99.979 409.969 101.782 409.969 104.257 C 409.969 106.732 410.449 108.557 411.411 109.732 C 412.373 110.907 413.841 111.494 415.818 111.494 Z M 427.301 111.494 C 429.241 111.494 430.715 110.929 431.721 109.799 C 432.726 108.668 433.229 106.856 433.229 104.364 C 433.229 101.854 432.726 100.024 431.721 98.876 C 430.715 97.728 429.241 97.153 427.301 97.153 C 425.361 97.153 423.886 97.714 422.881 98.836 C 421.875 99.957 421.372 101.765 421.372 104.257 C 421.372 106.75 421.875 108.579 422.881 109.745 C 423.886 110.911 425.361 111.495 427.301 111.495 L 427.301 111.494 Z M 425.511 102.12 C 425.565 101.55 425.662 101.11 425.806 100.799 C 425.947 100.487 426.134 100.269 426.366 100.144 C 426.597 100.02 426.909 99.957 427.301 99.957 C 427.692 99.957 428.004 100.015 428.236 100.131 C 428.466 100.247 428.654 100.456 428.796 100.758 C 428.939 101.061 429.041 101.489 429.104 102.041 C 429.166 102.592 429.197 103.331 429.197 104.257 C 429.197 106.002 429.067 107.181 428.81 107.796 C 428.551 108.41 428.057 108.716 427.328 108.716 C 426.58 108.716 426.077 108.423 425.818 107.836 C 425.561 107.248 425.431 106.091 425.431 104.364 C 425.431 103.438 425.458 102.69 425.511 102.12 Z M 439.157 111.441 C 439.585 111.441 439.987 111.401 440.359 111.321 C 440.733 111.241 441.064 111.147 441.349 111.041 L 440.975 108.583 C 440.815 108.601 440.707 108.61 440.654 108.61 C 440.209 108.61 439.924 108.543 439.799 108.41 C 439.674 108.276 439.613 107.951 439.613 107.435 L 439.613 91.599 L 435.847 91.599 L 435.847 107.141 C 435.847 108.726 436.06 109.839 436.487 110.48 C 436.915 111.12 437.805 111.441 439.157 111.441 Z M 450.134 110.667 C 450.241 110.987 450.304 111.147 450.321 111.147 L 453.285 111.147 L 453.285 101.56 C 453.285 99.975 452.898 98.845 452.125 98.168 C 451.349 97.492 450.098 97.153 448.371 97.153 C 447.339 97.153 446.395 97.296 445.541 97.581 C 444.669 97.875 443.842 98.288 443.084 98.809 L 444.446 101.373 C 445.051 101.017 445.648 100.732 446.235 100.518 C 446.799 100.309 447.395 100.201 447.997 100.198 C 448.603 100.198 449.007 100.34 449.213 100.625 C 449.417 100.91 449.52 101.418 449.52 102.147 L 449.52 102.655 L 448.692 102.655 C 446.644 102.655 445.144 103.007 444.192 103.71 C 443.24 104.413 442.762 105.548 442.762 107.115 C 442.762 108.521 443.089 109.603 443.738 110.359 C 444.388 111.116 445.408 111.494 446.796 111.494 C 447.473 111.494 448.068 111.364 448.586 111.107 C 449.102 110.849 449.555 110.507 449.946 110.079 C 449.965 110.096 450.027 110.292 450.134 110.667 Z M 449.52 108.182 C 449.27 108.414 449.013 108.592 448.745 108.717 C 448.478 108.842 448.175 108.904 447.838 108.904 C 447.339 108.904 446.992 108.766 446.796 108.49 C 446.6 108.214 446.502 107.738 446.502 107.061 C 446.502 106.278 446.685 105.735 447.05 105.432 C 447.414 105.129 448.175 104.978 449.333 104.978 L 449.52 104.978 L 449.52 108.182 Z M 459.027 95.925 C 459.649 95.925 460.184 95.702 460.629 95.257 C 461.073 94.812 461.296 94.278 461.296 93.655 C 461.296 93.032 461.073 92.498 460.629 92.052 C 460.201 91.615 459.612 91.373 459 91.385 C 458.377 91.385 457.847 91.608 457.41 92.052 C 456.979 92.484 456.744 93.072 456.757 93.682 C 456.757 94.305 456.979 94.834 457.424 95.27 C 457.869 95.707 458.404 95.925 459.027 95.925 Z M 457.131 111.147 L 460.922 111.147 L 460.922 97.501 L 455.582 97.501 L 455.582 99.957 L 457.131 100.332 L 457.131 111.147 Z M 467.974 101.426 C 468.294 101.195 468.596 101.03 468.881 100.932 C 469.166 100.834 469.523 100.785 469.951 100.785 C 470.448 100.785 470.902 100.91 471.311 101.159 L 471.98 97.394 C 471.63 97.31 471.271 97.265 470.911 97.26 C 469.576 97.26 468.481 97.857 467.626 99.05 L 467.279 97.5 L 464.208 97.5 L 464.208 111.147 L 467.974 111.147 L 467.974 101.426 Z M 479.938 111.494 C 480.881 111.494 481.744 111.343 482.528 111.04 C 483.312 110.738 483.961 110.346 484.478 109.865 L 482.848 107.355 C 482.408 107.693 481.934 107.984 481.433 108.223 C 480.988 108.427 480.463 108.53 479.858 108.53 C 479.002 108.53 478.397 108.33 478.042 107.93 C 477.685 107.528 477.472 106.723 477.4 105.512 L 484.745 105.512 L 484.745 104.417 C 484.745 101.871 484.305 100.024 483.422 98.876 C 482.542 97.728 481.077 97.153 479.029 97.153 C 477.159 97.153 475.739 97.714 474.769 98.836 C 473.799 99.957 473.314 101.765 473.314 104.257 C 473.314 106.803 473.844 108.646 474.904 109.785 C 475.962 110.925 477.641 111.495 479.938 111.495 L 479.938 111.494 Z M 477.868 100.504 C 478.126 100.087 478.557 99.877 479.163 99.877 C 479.858 99.877 480.316 100.1 480.538 100.545 C 480.76 100.99 480.89 101.791 480.925 102.949 L 477.4 102.949 C 477.454 101.738 477.609 100.923 477.867 100.505 L 477.868 100.504 Z M 490.619 108.396 C 490.049 108.396 489.493 108.303 488.951 108.116 C 488.412 107.931 487.897 107.684 487.415 107.381 L 486.213 110.239 C 486.818 110.595 487.552 110.893 488.416 111.134 C 489.279 111.374 490.218 111.494 491.234 111.494 C 492.925 111.494 494.18 111.107 494.999 110.333 C 495.818 109.558 496.228 108.441 496.228 106.981 C 496.228 106.287 496.133 105.695 495.948 105.205 C 495.784 104.751 495.519 104.34 495.173 104.003 C 494.837 103.687 494.454 103.426 494.037 103.229 C 493.539 102.999 493.021 102.816 492.489 102.681 C 491.669 102.451 491.145 102.254 490.913 102.094 C 490.681 101.934 490.566 101.649 490.566 101.239 C 490.566 100.883 490.686 100.616 490.926 100.438 C 491.166 100.26 491.501 100.171 491.927 100.171 C 492.919 100.166 493.899 100.395 494.786 100.839 L 495.72 98.008 C 495.106 97.732 494.466 97.518 493.81 97.367 C 493.178 97.224 492.417 97.153 491.528 97.153 C 490.048 97.153 488.906 97.505 488.095 98.208 C 487.285 98.912 486.88 99.94 486.88 101.292 C 486.88 102.503 487.151 103.429 487.694 104.07 C 488.238 104.71 489.052 105.192 490.138 105.512 C 491.082 105.797 491.705 106.037 492.008 106.233 C 492.311 106.429 492.462 106.75 492.462 107.195 C 492.462 107.996 491.847 108.396 490.619 108.396 Z M 370.172 203.404 L 364.508 203.404 L 364.508 230.004 L 378.325 230.004 L 378.325 225.105 L 370.172 225.105 L 370.172 203.405 L 370.172 203.404 Z M 389.155 209.948 C 387.675 209.948 386.323 210.153 385.098 210.56 C 383.849 210.981 382.664 211.574 381.578 212.322 L 383.529 215.996 C 384.396 215.486 385.252 215.076 386.094 214.771 C 386.902 214.471 387.758 214.315 388.62 214.312 C 389.487 214.312 390.067 214.516 390.361 214.924 C 390.654 215.333 390.801 216.059 390.801 217.106 L 390.801 217.832 L 389.615 217.832 C 386.68 217.832 384.53 218.337 383.165 219.344 C 381.8 220.354 381.118 221.98 381.118 224.224 C 381.118 226.241 381.583 227.791 382.515 228.874 C 383.446 229.959 384.907 230.501 386.897 230.501 C 387.867 230.501 388.722 230.315 389.462 229.946 C 390.202 229.576 390.852 229.085 391.414 228.473 C 391.439 228.498 391.528 228.779 391.682 229.315 C 391.834 229.775 391.923 230.004 391.95 230.004 L 396.198 230.004 L 396.198 216.263 C 396.198 213.993 395.643 212.373 394.533 211.403 C 393.423 210.433 391.63 209.948 389.155 209.948 Z M 390.801 225.756 C 390.473 226.067 390.099 226.325 389.691 226.52 C 389.283 226.705 388.838 226.797 388.39 226.789 C 387.675 226.789 387.178 226.592 386.897 226.196 C 386.617 225.8 386.477 225.118 386.477 224.148 C 386.477 223.026 386.737 222.247 387.261 221.813 C 387.784 221.379 388.874 221.163 390.533 221.163 L 390.801 221.163 L 390.801 225.756 Z M 423.849 216.11 C 423.14 215.494 422.34 214.99 421.477 214.618 C 420.596 214.236 419.505 213.853 418.204 213.47 C 417.004 213.087 416.201 212.68 415.794 212.245 C 415.384 211.811 415.181 211.148 415.181 210.255 C 415.181 208.571 416.201 207.729 418.242 207.729 C 419.212 207.729 420.035 207.818 420.712 207.996 C 421.387 208.176 422.133 208.52 422.95 209.029 L 424.978 204.743 C 423.974 204.123 422.885 203.653 421.745 203.346 C 420.635 203.053 419.315 202.906 417.783 202.906 C 415.181 202.906 413.126 203.557 411.621 204.858 C 410.115 206.16 409.363 208.112 409.363 210.714 C 409.363 211.99 409.529 213.087 409.861 214.005 C 410.192 214.925 410.664 215.689 411.276 216.302 C 411.915 216.933 412.652 217.456 413.458 217.852 C 414.3 218.272 415.334 218.675 416.558 219.058 C 417.885 219.466 418.81 219.894 419.334 220.339 C 419.856 220.786 420.118 221.508 420.118 222.501 C 420.118 223.497 419.805 224.269 419.18 224.818 C 418.555 225.366 417.592 225.641 416.29 225.641 C 414.148 225.641 412.119 224.965 410.205 223.613 L 408.292 228.051 C 409.21 228.767 410.441 229.353 411.985 229.813 C 413.528 230.273 415.142 230.501 416.826 230.501 C 418.51 230.501 419.951 230.303 421.151 229.908 C 422.351 229.512 423.314 228.938 424.041 228.185 C 424.768 227.432 425.312 226.522 425.629 225.525 C 425.961 224.505 426.127 223.344 426.127 222.043 C 426.127 220.64 425.922 219.453 425.514 218.483 C 425.106 217.514 424.551 216.723 423.849 216.11 Z M 437.149 209.948 C 435.669 209.948 434.317 210.153 433.092 210.56 C 431.843 210.981 430.658 211.574 429.572 212.322 L 431.522 215.996 C 432.39 215.486 433.245 215.076 434.087 214.771 C 434.895 214.471 435.751 214.315 436.613 214.312 C 437.481 214.312 438.061 214.516 438.355 214.924 C 438.648 215.333 438.795 216.059 438.795 217.106 L 438.795 217.832 L 437.609 217.832 C 434.674 217.832 432.524 218.337 431.159 219.344 C 429.794 220.354 429.112 221.98 429.112 224.224 C 429.112 226.241 429.577 227.791 430.509 228.874 C 431.44 229.959 432.901 230.501 434.891 230.501 C 435.861 230.501 436.715 230.315 437.455 229.946 C 438.195 229.576 438.845 229.085 439.407 228.473 C 439.432 228.498 439.522 228.779 439.675 229.315 C 439.828 229.775 439.917 230.004 439.943 230.004 L 444.191 230.004 L 444.191 216.263 C 444.191 213.993 443.636 212.373 442.527 211.403 C 441.417 210.433 439.624 209.948 437.149 209.948 Z M 438.795 225.756 C 438.467 226.067 438.093 226.325 437.685 226.52 C 437.277 226.705 436.832 226.797 436.384 226.789 C 435.669 226.789 435.172 226.592 434.891 226.196 C 434.611 225.8 434.471 225.118 434.471 224.148 C 434.471 223.026 434.731 222.247 435.255 221.813 C 435.777 221.379 436.868 221.163 438.527 221.163 L 438.795 221.163 L 438.795 225.756 Z M 455.559 226.368 C 454.921 226.368 454.512 226.272 454.334 226.08 C 454.155 225.89 454.066 225.423 454.066 224.684 L 454.066 201.988 L 448.67 201.988 L 448.67 224.263 C 448.67 226.534 448.976 228.128 449.588 229.047 C 450.201 229.966 451.476 230.425 453.415 230.425 C 454.028 230.425 454.602 230.368 455.138 230.252 C 455.619 230.153 456.092 230.019 456.554 229.851 L 456.018 226.33 C 455.788 226.355 455.636 226.368 455.559 226.368 Z M 466.505 226.368 C 465.867 226.368 465.458 226.272 465.28 226.08 C 465.101 225.89 465.012 225.423 465.012 224.684 L 465.012 201.988 L 459.616 201.988 L 459.616 224.263 C 459.616 226.534 459.922 228.128 460.534 229.047 C 461.147 229.966 462.422 230.425 464.361 230.425 C 464.974 230.425 465.548 230.368 466.084 230.252 C 466.565 230.153 467.038 230.019 467.5 229.851 L 466.964 226.33 C 466.734 226.355 466.581 226.368 466.505 226.368 Z M 477.872 209.948 C 475.192 209.948 473.158 210.753 471.767 212.36 C 470.377 213.967 469.681 216.557 469.681 220.13 C 469.681 223.778 470.441 226.419 471.958 228.051 C 473.477 229.686 475.881 230.501 479.173 230.501 C 480.525 230.501 481.763 230.284 482.886 229.851 C 484.008 229.417 484.939 228.856 485.679 228.166 L 483.345 224.568 C 482.63 225.105 481.954 225.52 481.316 225.813 C 480.678 226.107 479.926 226.253 479.058 226.253 C 477.833 226.253 476.966 225.966 476.456 225.392 C 475.945 224.818 475.639 223.663 475.537 221.928 L 486.062 221.928 L 486.062 220.358 C 486.062 216.71 485.43 214.063 484.167 212.418 C 482.905 210.772 480.806 209.948 477.872 209.948 Z M 475.537 218.253 C 475.613 216.519 475.837 215.352 476.207 214.753 C 476.577 214.153 477.195 213.853 478.063 213.853 C 479.058 213.853 479.715 214.173 480.034 214.81 C 480.353 215.447 480.538 216.595 480.589 218.253 L 475.537 218.253 Z M 497.887 222.158 L 506.652 222.158 L 506.652 216.722 L 497.888 216.722 L 497.888 222.158 L 497.887 222.158 Z M 528.277 203.404 L 519.703 203.404 L 519.703 230.004 L 528.506 230.004 C 532.155 230.004 534.751 228.881 536.295 226.635 C 537.838 224.39 538.611 220.985 538.611 216.417 C 538.611 211.722 537.761 208.379 536.066 206.389 C 534.368 204.399 531.772 203.404 528.277 203.404 Z M 532.18 220.761 C 532.027 221.922 531.784 222.815 531.453 223.439 C 531.121 224.066 530.693 224.499 530.171 224.741 C 529.648 224.984 528.978 225.105 528.161 225.105 L 525.444 225.105 L 525.444 208.226 L 528.047 208.226 C 528.889 208.226 529.577 208.341 530.113 208.571 C 530.649 208.801 531.083 209.196 531.415 209.757 C 531.746 210.319 531.995 211.123 532.161 212.169 C 532.327 213.215 532.411 214.567 532.411 216.225 C 532.411 218.088 532.333 219.6 532.181 220.761 L 532.18 220.761 Z M 550.36 209.948 C 547.58 209.948 545.467 210.753 544.026 212.36 C 542.584 213.967 541.864 216.557 541.864 220.13 C 541.864 223.703 542.584 226.323 544.026 227.994 C 545.466 229.666 547.579 230.501 550.36 230.501 C 553.141 230.501 555.252 229.691 556.694 228.071 C 558.136 226.451 558.857 223.854 558.857 220.282 C 558.857 216.684 558.136 214.062 556.694 212.417 C 555.252 210.772 553.14 209.948 550.36 209.948 Z M 552.522 225.201 C 552.152 226.081 551.444 226.521 550.398 226.521 C 549.326 226.521 548.605 226.099 548.236 225.258 C 547.866 224.416 547.681 222.758 547.681 220.282 C 547.681 218.956 547.719 217.884 547.795 217.067 C 547.872 216.252 548.012 215.619 548.217 215.172 C 548.42 214.727 548.689 214.414 549.021 214.236 C 549.351 214.056 549.799 213.967 550.36 213.967 C 550.921 213.967 551.368 214.05 551.7 214.215 C 552.03 214.382 552.3 214.682 552.503 215.115 C 552.708 215.549 552.854 216.162 552.943 216.953 C 553.033 217.743 553.077 218.803 553.077 220.129 C 553.077 222.63 552.892 224.32 552.522 225.201 Z M 569.496 226.368 C 568.858 226.368 568.449 226.272 568.271 226.08 C 568.093 225.89 568.004 225.423 568.004 224.684 L 568.004 201.988 L 562.606 201.988 L 562.606 224.263 C 562.606 226.534 562.913 228.128 563.526 229.047 C 564.137 229.966 565.414 230.425 567.353 230.425 C 567.965 230.425 568.539 230.368 569.075 230.252 C 569.556 230.153 570.03 230.019 570.492 229.851 L 569.956 226.33 C 569.803 226.349 569.65 226.362 569.496 226.368 Z M 588.999 220.358 C 588.999 216.71 588.368 214.063 587.105 212.418 C 585.842 210.772 583.743 209.948 580.81 209.948 C 578.13 209.948 576.094 210.753 574.705 212.36 C 573.314 213.967 572.619 216.557 572.619 220.13 C 572.619 223.778 573.377 226.419 574.896 228.051 C 576.414 229.686 578.819 230.501 582.11 230.501 C 583.463 230.501 584.7 230.284 585.822 229.851 C 586.945 229.417 587.877 228.856 588.617 228.166 L 586.282 224.568 C 585.568 225.105 584.891 225.52 584.253 225.813 C 583.616 226.107 582.863 226.253 581.996 226.253 C 580.77 226.253 579.903 225.966 579.393 225.392 C 578.883 224.818 578.576 223.663 578.474 221.928 L 589 221.928 L 589 220.358 L 588.999 220.358 Z M 578.474 218.253 C 578.551 216.519 578.774 215.352 579.144 214.753 C 579.514 214.153 580.133 213.853 581 213.853 C 581.996 213.853 582.652 214.173 582.972 214.81 C 583.29 215.447 583.474 216.595 583.527 218.253 L 578.474 218.253 Z" fill="#ffffff"/>
</svg>